<?xml version="1.0" standalone="no"?>
<!DOCTYPE svg PUBLIC "-//W3C//DTD SVG 20010904//EN"
 "http://www.w3.org/TR/2001/REC-SVG-20010904/DTD/svg10.dtd">
<svg version="1.0" xmlns="http://www.w3.org/2000/svg"
 width="1000.000000pt" height="1000.000000pt" viewBox="0 0 1000.000000 1000.000000"
 preserveAspectRatio="xMidYMid meet">

<g transform="translate(0.000000,1000.000000) scale(0.100000,-0.100000)"
fill="#000000" stroke="none">
<path d="M1495 8608 c-3 -7 -4 -1635 -3 -3618 l3 -3605 694 -3 c549 -2 696 0
703 10 4 7 8 1361 9 3008 0 2005 4 2985 11 2965 10 -31 29 -113 72 -305 14
-63 37 -164 51 -225 14 -60 36 -159 49 -220 13 -60 28 -128 34 -150 6 -22 25
-107 42 -190 17 -82 39 -184 50 -225 10 -41 22 -91 25 -110 4 -19 15 -71 25
-115 10 -44 33 -143 50 -220 17 -77 42 -185 56 -240 13 -55 27 -120 30 -145 4
-25 11 -53 16 -63 5 -10 14 -46 19 -80 5 -34 18 -89 29 -122 10 -33 24 -96 30
-140 6 -44 17 -100 25 -125 7 -25 19 -76 26 -115 6 -38 16 -81 21 -95 5 -14
18 -68 28 -120 10 -52 26 -126 35 -165 9 -38 28 -119 42 -180 14 -60 32 -137
40 -170 7 -33 20 -94 28 -135 9 -41 22 -100 29 -130 14 -52 43 -183 102 -450
33 -152 56 -256 94 -425 17 -77 45 -198 61 -270 16 -71 34 -150 40 -175 6 -25
19 -83 29 -130 10 -47 25 -114 33 -150 17 -69 65 -284 98 -435 11 -49 24 -107
30 -127 l10 -38 733 0 c689 0 734 1 741 18 4 9 15 58 25 107 10 50 25 117 33
150 8 33 24 103 36 155 43 196 91 406 101 445 6 22 21 90 35 150 13 61 36 160
49 220 14 61 37 162 52 225 14 63 34 159 45 213 10 54 21 102 24 107 3 6 14
51 25 102 10 51 25 120 33 153 8 33 29 125 47 205 17 80 40 179 50 220 27 105
67 287 75 335 4 22 15 67 25 100 10 33 21 85 25 115 4 30 12 66 17 80 5 14 18
65 28 115 38 178 69 321 85 390 31 130 64 280 70 315 4 19 13 58 20 85 17 62
62 257 80 344 7 36 20 93 28 126 8 33 27 114 42 180 14 66 37 167 50 225 13
58 35 157 49 220 60 273 88 399 101 450 21 84 73 310 80 352 4 20 13 54 21 75
11 32 13 -427 14 -2957 0 -1647 4 -3001 8 -3008 7 -10 154 -12 703 -10 l694 3
0 3615 0 3615 -1086 3 -1086 2 -17 -57 c-18 -62 -45 -180 -76 -331 -10 -51
-22 -96 -25 -101 -3 -5 -14 -49 -24 -98 -11 -48 -33 -149 -49 -223 -17 -74
-37 -169 -46 -210 -9 -41 -25 -109 -36 -150 -22 -87 -41 -170 -77 -330 -51
-232 -61 -276 -76 -330 -8 -30 -18 -73 -22 -95 -3 -22 -12 -62 -20 -90 -7 -27
-30 -124 -50 -215 -20 -91 -41 -183 -47 -205 -6 -22 -21 -89 -35 -150 -39
-182 -74 -333 -149 -655 -14 -58 -34 -148 -44 -200 -10 -52 -28 -131 -39 -175
-11 -44 -21 -90 -21 -103 0 -13 -5 -33 -11 -45 -11 -20 -41 -139 -79 -317 -51
-235 -61 -279 -74 -330 -8 -30 -31 -129 -51 -220 -20 -91 -42 -188 -50 -215
-8 -28 -23 -91 -34 -140 -52 -241 -60 -278 -69 -308 -6 -18 -27 -106 -47 -197
-21 -91 -41 -169 -46 -174 -4 -5 -11 4 -14 20 -3 16 -12 54 -20 84 -7 30 -28
118 -45 195 -49 216 -89 385 -101 435 -6 25 -20 81 -29 125 -20 88 -44 188
-67 280 -9 33 -24 98 -34 145 -10 47 -30 135 -44 195 -14 61 -36 157 -50 215
-13 58 -32 139 -43 180 -11 41 -25 98 -30 125 -6 28 -18 86 -27 130 -9 44 -22
103 -30 130 -7 28 -19 77 -25 110 -6 33 -18 80 -25 105 -8 25 -19 74 -25 110
-7 36 -16 76 -21 90 -5 14 -18 66 -28 115 -22 104 -44 198 -71 305 -11 41 -22
91 -25 110 -4 19 -15 71 -25 115 -10 44 -33 143 -50 220 -47 204 -88 382 -106
447 -8 32 -21 88 -29 125 -19 87 -58 258 -80 348 -23 95 -58 249 -86 370 -12
55 -31 136 -41 180 -11 44 -28 122 -38 173 -11 51 -21 96 -24 100 -3 5 -14 51
-25 103 -30 140 -50 221 -63 252 l-10 27 -1095 0 c-866 0 -1095 -3 -1098 -12z"/>
</g>
</svg>
